
<global>
amp_veltrack=0
ampeg_attack=0.005
ampeg_release=0.35
</global>

<group>
group_label=PP
lpc_hicc1=42
lpc_locc1=0

<region>
end=352759
hikey=g#4
hivel=127
lokey=g4
loop_end=294089
loop_mode=loop_continuous
loop_start=118768
loop_xfade=24560
lovel=1
lpc=ROvJQTyAfMLlcX5CZFc1whUmIELqGxjCS8nmQSLIa8H8S9dA2oqOwIkgskD+etzAE3cnPoJWj0CSugTANTKpP11Cp8AYBh9BT0q4wJaiBUD/yYnAccyxQPMX18CFBHZA
lpc_rms=-35.53
pitch_keycenter=g#4
sample=SoloCello_espressivo_PP_G#4.opus
</region>

<region>
end=300630
hikey=g#3
hivel=127
lokey=g3
loop_end=273953
loop_mode=loop_continuous
loop_start=101217
loop_xfade=20930
lovel=1
lpc=RFdAQjvgAcNlLQdDwESnwjPub0Lj41bCQQInQp9XBcIPYtNB8Dycwc+xsUGc+O3Ba46wQe4OKEAmAWvBM/elQJKZUUBch0hAU0QRwebhsUBGvoDAYaRPQEOlCsBBpbc/
lpc_rms=-32.21
pitch_keycenter=g#3
sample=SoloCello_espressivo_PP_G#3.opus
</region>

<region>
end=302277
hikey=g#2
hivel=127
lokey=g2
loop_end=275454
loop_mode=loop_continuous
loop_start=101772
loop_xfade=21045
lovel=1
lpc=DrnzQs5hm8MYLoNDZoTGwhv6kUKX3o/CNY3TQTfZRMAuXb1AlyQ4wXaqBkEUO+rAnTW2QHwZkEGW67jB41dJv01VGEFkMhnAEfp7v8VvU8CDE5dAnWjrQGCOgMF/te1A
lpc_rms=-29.94
pitch_keycenter=g#2
sample=SoloCello_espressivo_PP_G#2.opus
</region>

<region>
end=345880
hikey=B6
hivel=127
lokey=f5
loop_end=286325
loop_mode=loop_continuous
loop_start=116452
loop_xfade=24081
lovel=1
lpc=5RgYQWqcksHpzYJBKf5BwVBUJUH48QTBnSbIQKnbKsDE8YW/9yPZP9+4I73VRho8QG+2Pxz3JcBalsY/BvdnPlu2lr/Z/zlAMs5iwIAvKEAPfPg9sKGAv6+gLT5XW5w+
lpc_rms=-47.05
pitch_keycenter=F#5
sample=SoloCello_espressivo_PP_F#5.opus
</region>

<region>
end=365890
hikey=f#4
hivel=127
lokey=f4
loop_end=290436
loop_mode=loop_continuous
loop_start=123189
loop_xfade=25474
lovel=1
lpc=aQpqQX4jEcKOBxZCRAfXwWWzs0FAea3BZ/iPQeZOKMHQvnNA36NKv+hM8D+iY5DAEKkeQMslNkD96onA1QNYQPOjl8CLmQFBiWMMwRdO6EAtdLrAMnCvQHy4rMDGGx1A
lpc_rms=-42.21
pitch_keycenter=f#4
sample=SoloCello_espressivo_PP_F#4.opus
</region>

<region>
end=302176
hikey=f#3
hivel=127
lokey=f3
loop_end=275362
loop_mode=loop_continuous
loop_start=101738
loop_xfade=21038
lovel=1
lpc=HUwLQgmzs8LwdbZCxk9vwmtVO0JDqSLC54vzQcjVtcFWKXJB+k8gwSpdIkG3Rk/BBLkwQaMq5T9jRi/Br0v2QB5btcBqZi5BvNUswbP88UC++B3Bs34yQSaBFcF5U4RA
lpc_rms=-35.24
pitch_keycenter=f#3
sample=SoloCello_espressivo_PP_F#3.opus
</region>

<region>
end=295604
hikey=f#2
hivel=127
lokey=f2
loop_end=269373
loop_mode=loop_continuous
loop_start=99525
loop_xfade=20580
lovel=1
lpc=rPDOQtdIhcPOi25DuNXQwkk8kUIw3I3CDt7uQcYDNsDE2uE/4l9uwW7m2kHRPL/BMhlZQSwYRkHA7sbBzZTxQGxrNr6l4PNAnDiNv7LNNsHs/pZAMwxeQe5Iz8HNnGFB
lpc_rms=-30.87
pitch_keycenter=f#2
sample=SoloCello_espressivo_PP_F#2.opus
</region>

<region>
end=284529
hikey=e5
hivel=127
lokey=d#5
loop_end=272558
loop_mode=loop_continuous
loop_start=95796
loop_xfade=19809
lovel=1
lpc=uaTvQQxqfMIauGZCKcIcwm3JBUKl3OLB5Z2iQVaLUMFhP1lB6fsuwY2lwUCs4pTAq5kRQFxje0C/HwnBc2n4QBKXAsA7fYRA+KMUwH/Kbb/NlZQ+YUhHvixwCcCBooxA
lpc_rms=-36.73
pitch_keycenter=e5
sample=SoloCello_espressivo_PP_E5.opus
</region>

<region>
end=289635
hikey=e4
hivel=127
lokey=d#4
loop_end=263934
loop_mode=loop_continuous
loop_start=97515
loop_xfade=20165
lovel=1
lpc=HjXKQSS2hsINSZBC8TpCwvFBCUKk1NjBSvqgQUYbZMFmOBNByi+9wLHVyEAkG87AZH45PyVTj0Av15rA1ZuKQGwXtMA+dw5BuPbpwNR/ZUCqZmzA4t2FQEFbMcACqUg/
lpc_rms=-36.91
pitch_keycenter=e4
sample=SoloCello_espressivo_PP_E4.opus
</region>

<region>
end=296852
hikey=e3
hivel=127
lokey=d#3
loop_end=270510
loop_mode=loop_continuous
loop_start=99945
loop_xfade=20667
lovel=1
lpc=z609Qq0O/8KJGwZDGvGmwpdzVEK58ynCQRcHQq0L28F40aVBWAFZwf/HX0HH96rBZqOUQazBkT/QJ3HBWF0vQd5m4MAr+HBB+Sufwbiil0G0QqPB3PGKQRgAN8Eg4pNA
lpc_rms=-33.33
pitch_keycenter=e3
sample=SoloCello_espressivo_PP_E3.opus
</region>

<region>
end=294324
hikey=e2
hivel=127
lokey=d#2
loop_end=268206
loop_mode=loop_continuous
loop_start=99094
loop_xfade=20491
lovel=1
lpc=u065QnEYbMOHykpDLUOcwi3jakIz4YzCzj0YQrryAcGMZppA7a2GwfFOrUG4L3TBd76Bv9A46kEiGOvB14GDQAD8mD93bzxB5Ao+wV7xfsBT3L5ACck7QUUerMHDiSJB
lpc_rms=-31.39
pitch_keycenter=e2
sample=SoloCello_espressivo_PP_E2.opus
</region>

<region>
end=345858
hikey=d5
hivel=127
lokey=c#5
loop_end=282034
loop_mode=loop_continuous
loop_start=116445
loop_xfade=24079
lovel=1
lpc=T/ptQWOyAcK/RgRCkZzIwSxYpEHx4oPBzU9LQYrfEcF876hA/eIrwMnSAkDmBTzAb+/7P+OpuT9WTTLAxH4vQB5I/b9V25s/fkadvXJTx78z48RAd/PvwBWwj0Curx+/
lpc_rms=-41.57
pitch_keycenter=d5
sample=SoloCello_espressivo_PP_D5.opus
</region>

<region>
end=322389
hikey=d4
hivel=127
lokey=c#4
loop_end=293781
loop_mode=loop_continuous
loop_start=108543
loop_xfade=22445
lovel=1
lpc=1lORQddOMsLhXzRCG2TrwRYfnUHBAH3BcvhGQaaIC8HjhrRAyjBMwAechEBVtg/B4GvVQOyBU0A6jtXAJTGIQNrfWcAJU4pA8rdXwHbfWkBZa7LAR9+kQJMtFsAN1b4+
lpc_rms=-43.19
pitch_keycenter=d4
sample=SoloCello_espressivo_PP_D4.opus
</region>

<region>
end=303328
hikey=d3
hivel=127
lokey=c#3
loop_end=276411
loop_mode=loop_continuous
loop_start=102126
loop_xfade=21118
lovel=1
lpc=75sSQl2SusKil6tCzLYowjay6kEeR9vBTOSDQQsQ8MDXDfI/v6aiv3dwu0CIyVbBX7JQQb8jj0D2lGXBRpoNQXXr+MAhPClB2fbTwBDy4D9ZdArAiuWFQHkppMDqrBdA
lpc_rms=-36.60
pitch_keycenter=d3
sample=SoloCello_espressivo_PP_D3.opus
</region>

<region>
end=325707
hikey=d2
hivel=127
lokey=c#2
loop_end=296805
loop_mode=loop_continuous
loop_start=109660
loop_xfade=22676
lovel=1
lpc=90BFQtNz58I8s65CMaHqwX4L0kHVxt3B7MZ3QQpfQcHH9zJB1X1Rwcd8WUFb3QfBJRM/QKTyFkGe/0LBXaAQP24pCUDAn7FABa7VwD1SaD+oeHg/bC2KQFsCIME5P7FA
lpc_rms=-35.82
pitch_keycenter=d2
sample=SoloCello_espressivo_PP_D2.opus
</region>

<region>
end=302957
hikey=c5
hivel=127
lokey=b4
loop_end=284080
loop_mode=loop_continuous
loop_start=102001
loop_xfade=21092
lovel=1
lpc=j64FQbvckME35ohBlV1MwYNaO0FvrhvBfCHiQJ5Cm8DheTZA+Vqhv6UZbD/zNs6/TFWYP653cT91vAzAVU/hP70gCsAM4IpAQhKAwMr4EUD4s8O/gWY3P8Oh5b4HDD4/
lpc_rms=-45.55
pitch_keycenter=c5
sample=SoloCello_espressivo_PP_C5.opus
</region>

<region>
end=306432
hikey=c4
hivel=127
lokey=b3
loop_end=279240
loop_mode=loop_continuous
loop_start=103171
loop_xfade=21334
lovel=1
lpc=UwynQXCRUcLzslNC3e0JwkiaxkFYJ6DBru9eQQfmKMF/BhFB4JHqwE2+A0GXsjrBIlUHQcakBUABe8HATRtzQCYyIcBI7hhATqgtwCWvTUD7WFnAd90tQDxqMsBMzN4/
lpc_rms=-40.25
pitch_keycenter=c4
sample=SoloCello_espressivo_PP_C4.opus
</region>

<region>
end=353388
hikey=c3
hivel=127
lokey=b2
loop_end=275309
loop_mode=loop_continuous
loop_start=118980
loop_xfade=24604
lovel=1
lpc=Rf7rQUNAksIklH1CA3/Twe7WhUEImILB6lkNQXJYc8Dzl64/FywgwCpXDkHDc1nBoQ3fQK+CEEE5113BU3/hQD/YosAXbc1AU3tLwHQHc72Kkk+++QsLP4V+gb/XmjI/
lpc_rms=-41.44
pitch_keycenter=c3
sample=SoloCello_espressivo_PP_C3.opus
</region>

<region>
end=284207
hivel=127
key=c2
loop_end=258987
loop_mode=loop_continuous
loop_start=95688
loop_xfade=19787
lovel=1
lpc=JxKjQnkvSMPB1h9D2NpUwt+uL0I+31fCYtzBQRsWAz8/Hrw+jElcwXc8h0Gdh1zBE6gRQcd4MEEofmfBe2l7wMyl20DYqPZAYyUtwUV98L9RvY5AQ+TxQOBTgcG6NAhB
lpc_rms=-32.98
sample=SoloCello_espressivo_PP_C2.opus
</region>

<region>
end=357005
hikey=a#4
hivel=127
lokey=a4
loop_end=289231
loop_mode=loop_continuous
loop_start=120198
loop_xfade=24855
lovel=1
lpc=6yyVQNfkGMHOOAxBVCLHwNdcskAvzJDAzVosQHvsx78C2QA+3xqcP/KvRb/GJtY+Vpx0v1LWlT93Vo2/h+JhPxYiI7+C+2A/+9iZv1SqjD8HoQ+/deaPPqKIXL6KBhU+
lpc_rms=-50.71
pitch_keycenter=a#4
sample=SoloCello_espressivo_PP_A#4.opus
</region>

<region>
end=296573
hikey=a#3
hivel=127
lokey=a3
loop_end=270256
loop_mode=loop_continuous
loop_start=99851
loop_xfade=20648
lovel=1
lpc=onkWQjjpwcKq0cNCdSZ4wgTyLkLDRRLC5fD0QcxI1cHHx6VB3W90wf9VdEFBYZfBMgOAQTJoGz5tzE7BeUU7QU6NqsAVKMpA6/QdwexmC0EzoB3BpAELQZ8pk8B6b+w/
lpc_rms=-35.01
pitch_keycenter=a#3
sample=SoloCello_espressivo_PP_A#3.opus
</region>

<region>
end=294511
hikey=a#2
hivel=127
lokey=a2
loop_end=268377
loop_mode=loop_continuous
loop_start=99157
loop_xfade=20504
lovel=1
lpc=Lj+zQjE+Y8MsWkBD0IqYwvpdd0IwN33CtKWuQfWYo0DWqsLA3Vu0wACJy0Fb2gHCXt5MQbp/okGausPBnuwBQddxCMGSQGxByWbjv+oEb8H3/qlAEglFQGpcgz9aBA+/
lpc_rms=-32.97
pitch_keycenter=a#2
sample=SoloCello_espressivo_PP_A#2.opus
</region>
</group>

<group>
group_label=MF
lpc_hicc1=84
lpc_locc1=43

<region>
end=298782
hikey=g#4
hivel=127
lokey=g4
loop_end=272269
loop_mode=loop_continuous
loop_start=100595
loop_xfade=20802
lovel=1
lpc=XkGPQZy/IcJtshRCeZ3JwYSRqUEEraHBKG+PQfsMVsFYYulAzBM2wO2/V0DIToDAe7HfP4bQPr9YgNg/E6yRvxABoz8ng/q/kI5AQKtVVcAEMes/vHmAv4YLNL/e0bE/
lpc_rms=-21.64
pitch_keycenter=g#4
sample=SoloCello_espressivo_MF_G#4.opus
</region>

<region>
end=303101
hikey=g#3
hivel=127
lokey=g3
loop_end=276205
loop_mode=loop_continuous
loop_start=102049
loop_xfade=21102
lovel=1
lpc=vwsJQua5rMKfhqVCaJpEwiEgGUIxxgjCapy0QWY/e8GCK4BBZHWCwZzfkkFsoKzBTcZDQcBW3UDuL3nBva5fQWTwXsHlX5dB3D+awTapJEEyADrAXHACQFRocsCJoRxA
lpc_rms=-20.47
pitch_keycenter=g#3
sample=SoloCello_espressivo_MF_G#3.opus
</region>

<region>
end=307548
hikey=g#2
hivel=127
lokey=g2
loop_end=280257
loop_mode=loop_continuous
loop_start=103547
loop_xfade=21412
lovel=1
lpc=5pJFQlif+8LdGtpCon8jwghK1EF4xwPCfwC0QfGWhcFUmYRBSap7wdVRjEHpV5HBW/NIQdiHAUAXFCjBlPtPP7vAukDeiyxAeIOewGWUGMCZhkRAdUChv3d0gj/0vF+9
lpc_rms=-21.56
pitch_keycenter=g#2
sample=SoloCello_espressivo_MF_G#2.opus
</region>

<region>
end=301055
hikey=B6
hivel=127
lokey=f5
loop_end=274340
loop_mode=loop_continuous
loop_start=101360
loop_xfade=20960
lovel=1
lpc=eRscQcVDhcEMdWdBFhUkwWbt+0CfXG3ASosKQCf/vb9r5MA/S1APwK7rXkA8nSXASisEQFLFVD8HODXAODhfQLX/J8DsySxAyJHjv4xXM0CTUgPA7NGtPx8Psr+Wwuc/
lpc_rms=-29.60
pitch_keycenter=F#5
sample=SoloCello_espressivo_MF_F#5.opus
</region>

<region>
end=297890
hikey=f#4
hivel=127
lokey=f4
loop_end=271456
loop_mode=loop_continuous
loop_start=100295
loop_xfade=20740
lovel=1
lpc=zc37QNn/icEZBYNBkKw/wXNUH0E+SvnAHAzAQB5AscAEdolAauJCwB/LX0Bc3mjAblIkQL2LdL97OO6+aYAfP/yym772LIQ/Te6GvYrusr8kGgE/HltXP/+UH7/OwR68
lpc_rms=-32.23
pitch_keycenter=f#4
sample=SoloCello_espressivo_MF_F#4.opus
</region>

<region>
end=299420
hikey=f#3
hivel=127
lokey=f3
loop_end=272850
loop_mode=loop_continuous
loop_start=100810
loop_xfade=20846
lovel=1
lpc=0Jy+QcX0acKeFmBC4SgHwq7yuUETn5LBoUNHQXW4KcHsj1hBG9qBwTRXiEGJJHLBLEPKQI333UDGVVvBoCc6QZ3GEME/uSVBhrb3wLYTSEDcFXjAYqKiQDvBjsBkDAFA
lpc_rms=-26.32
pitch_keycenter=f#3
sample=SoloCello_espressivo_MF_F#3.opus
</region>

<region>
end=305680
hikey=f#2
hivel=127
lokey=f2
loop_end=278555
loop_mode=loop_continuous
loop_start=102918
loop_xfade=21282
lovel=1
lpc=37qxQvPZbsMT7VtDmQqewt4YDkIr9FnCDYwjQlC8z8FA/eVBNKMdwmxXJEKCN6nBi3GDPwHCkEHJN9TBhXBFQVibysBOsbVBSnmvwXx9k8ApEGBBux0cQGdYicFcwiFB
lpc_rms=-21.29
pitch_keycenter=f#2
sample=SoloCello_espressivo_MF_F#2.opus
</region>

<region>
end=301925
hikey=e5
hivel=127
lokey=d#5
loop_end=275133
loop_mode=loop_continuous
loop_start=101653
loop_xfade=21021
lovel=1
lpc=IbNDQVq3xMHai7BBH8NZwT7TIkHG3xHBK7IPQQs14cC6zohAfGQAwFA73T8toTLAsEdAQD8lq74N8Om/sbw+QGUhWsD4t19AmPPZPrc0JMArMcA+q4BAQPxtVMCnVQNA
lpc_rms=-24.18
pitch_keycenter=e5
sample=SoloCello_espressivo_MF_E5.opus
</region>

<region>
end=297763
hikey=e4
hivel=127
lokey=d#4
loop_end=271340
loop_mode=loop_continuous
loop_start=100252
loop_xfade=20731
lovel=1
lpc=y7g+Qd/318Fd0cNBkb13wcDwT0HDZDPBjX7PQL3gfsD8+5dAGAOEwF/CWUBXlLrAlI2gQGGAmT/lg4zApTJBQNDvGcCVsoZAfGh2wINbBkDEQNq/oV9OP1ZNMj939Si/
lpc_rms=-26.03
pitch_keycenter=e4
sample=SoloCello_espressivo_MF_E4.opus
</region>

<region>
end=300004
hikey=e3
hivel=127
lokey=d#3
loop_end=273382
loop_mode=loop_continuous
loop_start=101007
loop_xfade=20887
lovel=1
lpc=jD7ZQfg8iMJqEoNCeoscwuVI5kEe4r7B6Xl1QYUnK8GyIyhBXGchwWgeOkG33nvBfxEzQVB3RUCLsznBk30OQcZwlMD6KMJAY3bBwK9qLUB+tda/jFmkPxMysr/Oa3Y/
lpc_rms=-23.97
pitch_keycenter=e3
sample=SoloCello_espressivo_MF_E3.opus
</region>

<region>
end=304457
hikey=e2
hivel=127
lokey=d#2
loop_end=277440
loop_mode=loop_continuous
loop_start=102506
loop_xfade=21197
lovel=1
lpc=CVxpQrMsFMM3be5Cd/fcwTcHm0EStx/CWe22QR2nIMFMSYJBOq/BwYnIy0GgoJnBcckNQSdxJEGjx5nBdZOrQFYTcb2aYTNBjE7+wCun78DoqCxBazrXPjAJK8E5oMpA
lpc_rms=-24.91
pitch_keycenter=e2
sample=SoloCello_espressivo_MF_E2.opus
</region>

<region>
end=337274
hikey=d5
hivel=127
lokey=c#5
loop_end=280573
loop_mode=loop_continuous
loop_start=113555
loop_xfade=23482
lovel=1
lpc=EJC2QFkdM8FYeh9B//3NwIqDnUBVAVzA244RQFjOs7/6aFo/pdyxv96UFUCxgxPArQWbPz4xXz+SjQvA1VS7P/vNFL/vSzQ/1/YAPOxdRb4CYds+sWggvns2VL76lMM+
lpc_rms=-32.84
pitch_keycenter=d5
sample=SoloCello_espressivo_MF_D5.opus
</region>

<region>
end=313388
hikey=d4
hivel=127
lokey=c#4
loop_end=285579
loop_mode=loop_continuous
loop_start=105513
loop_xfade=21819
lovel=1
lpc=fKThQI8rcsEDxVpB7TQUwcKaBEFHT93A8ZGMQJ8dS8Aw3wVA5gCNvzhIEkCm8T3AJedoP/q/mj/YWtK/rsS1P8x88b97eTZAbOEkwIpgC0C9v86/VNIpP4zj971Re/Q9
lpc_rms=-33.38
pitch_keycenter=d4
sample=SoloCello_espressivo_MF_D4.opus
</region>

<region>
end=308421
hikey=d3
hivel=127
lokey=c#3
loop_end=281053
loop_mode=loop_continuous
loop_start=103840
loop_xfade=21473
lovel=1
lpc=shqpQZrdUcLnu0NCUsrUwSR7mUHmMYrBQME/QVbUGMFI7BlBse4kwWbsPEEYrT3ByQfqQGhGuD+13OTAyOl0QJx4Kj+uLh1AlmohwKMs/r9qUsg/Gt55Pn9cg770oQM9
lpc_rms=-28.16
pitch_keycenter=d3
sample=SoloCello_espressivo_MF_D3.opus
</region>

<region>
end=302733
hikey=d2
hivel=127
lokey=c#2
loop_end=275869
loop_mode=loop_continuous
loop_start=101925
loop_xfade=21077
lovel=1
lpc=QK4OQmQjrcL6GYJCILUywRi7AkGgW6PBki06Qc/OyMADhQJBGVgdwV9xKEE3DvLA2yGMPVisQ0G5hFHB+oW6PoVwoD/YMABBFzaswEg7esAF8aNA+XkMPUL7nMCTakhA
lpc_rms=-27.94
pitch_keycenter=d2
sample=SoloCello_espressivo_MF_D2.opus
</region>

<region>
end=300469
hikey=c5
hivel=127
lokey=b4
loop_end=273806
loop_mode=loop_continuous
loop_start=101163
loop_xfade=20919
lovel=1
lpc=ES3YQBKyXsGXlUNBUBsAwUoPxEARIZPANghBQL3O8r894fw/HoM+wAlbWkBVeRHAnJROP8lxGz4nT6I+dp0Uv/eEnL2EAfk+ufewPl2dT7+YjgC/owHvP92Z6r/9J3o/
lpc_rms=-32.43
pitch_keycenter=c5
sample=SoloCello_espressivo_MF_C5.opus
</region>

<region>
end=312541
hikey=c4
hivel=127
lokey=b3
loop_end=284807
loop_mode=loop_continuous
loop_start=105228
loop_xfade=21760
lovel=1
lpc=7+EfQZwKscE8rKRBnv5iwc4gOkESfiLBJw3lQIswhsDnnhpA/mArwIuxc0Ak2ILATZomQAApGT9LaSbA8isGQFbwkr8WcNo/ojf3v5B39z/XzvS/yo2dP15anr+plUo/
lpc_rms=-30.40
pitch_keycenter=c4
sample=SoloCello_espressivo_MF_C4.opus
</region>

<region>
end=301083
hikey=c3
hivel=127
lokey=b2
loop_end=274366
loop_mode=loop_continuous
loop_start=101370
loop_xfade=20962
lovel=1
lpc=1X+nQdaQTcJYVTVCyySiwXPTTUG921PB8EkgQQpk/sAwBgBB3E4DwaoFA0FbLBDBUn3PQDTcG0CeFdXAqrALQO0if79Lp7dA4z6nwPYjnz8d24i/4pO/Py92lr8mygQ/
lpc_rms=-29.42
pitch_keycenter=c3
sample=SoloCello_espressivo_MF_C3.opus
</region>

<region>
end=293278
hivel=127
key=c2
loop_end=267253
loop_mode=loop_continuous
loop_start=98742
loop_xfade=20418
lovel=1
lpc=3tKBQv17IsPrFPpC7W+nwRl9g0EPITLCvM6yQa7gUMBxBRpB37ihwd1J0kFmMJ7BXGmrQO5WaUHf4qTBYkuRQB03jr/EZnRBEUEtwd7A3cD5axJBSRF2P20YGMEAOMBA
lpc_rms=-21.92
sample=SoloCello_espressivo_MF_C2.opus
</region>

<region>
end=311735
hikey=a#4
hivel=127
lokey=a4
loop_end=284072
loop_mode=loop_continuous
loop_start=104956
loop_xfade=21704
lovel=1
lpc=Qy2EQHADAMG02+ZA4QixwG/ZpUDpMYvAW1RWQDctRMBD/kVA1t0cwL3wxj98ioS/K7ZDP+ZHgT18OFu/7mULPzQher7NJ2A/RLoSv6d2n73IGKi9eS/mPsEunL7YpQM+
lpc_rms=-35.57
pitch_keycenter=a#4
sample=SoloCello_espressivo_MF_A#4.opus
</region>

<region>
end=295886
hikey=a#3
hivel=127
lokey=a3
loop_end=269630
loop_mode=loop_continuous
loop_start=99620
loop_xfade=20600
lovel=1
lpc=Zy2bQa60MMKWax9C2ifBwWLVlEGlwWDBolQKQdeOEMEYdAhBXZ/owMwMEkGq8BvBUyd8QBQMm0BH5CXBlHIVQb95AcFF0itBgLkWwQHTokDIWS7AtFJ4P8l5x70z19M+
lpc_rms=-25.96
pitch_keycenter=a#3
sample=SoloCello_espressivo_MF_A#3.opus
</region>

<region>
end=304106
hikey=a#2
hivel=127
lokey=a2
loop_end=277120
loop_mode=loop_continuous
loop_start=102388
loop_xfade=21172
lovel=1
lpc=GIwlQhfayMK6gKpCjroZwlJq+0F6/wPCR2qTQZs9GcEuslBBI9+CwUytb0ESP0PB7VjsQDxQcUC2Li3BQ4G9QGG22b/22bNAQCKGwNfP3L9jO7i/+PurQOhfisDGufo/
lpc_rms=-22.17
pitch_keycenter=a#2
sample=SoloCello_espressivo_MF_A#2.opus
</region>
</group>

<group>
group_label=FF
lpc_hicc1=127
lpc_locc1=85

<region>
end=289571
hikey=g#4
hivel=127
lokey=g4
loop_end=263875
loop_mode=loop_continuous
loop_start=97494
loop_xfade=20160
lovel=1
lpc=poRIQTXb2sGQiLtBG6howSUaTEGbHEXBCoIJQe5Qa8AFiAlAhW1MwDCbk0Bj9ZzAfjE9QITFML/90VU+c1VHv3kwlj/VWIQ/TmwCwEivuT40cbi++RrrP8e4K8D6iMM/
lpc_rms=-16.78
pitch_keycenter=g#4
sample=SoloCello_espressivo_FF_G#4.opus
</region>

<region>
end=301064
hikey=g#3
hivel=127
lokey=g3
loop_end=274348
loop_mode=loop_continuous
loop_start=101363
loop_xfade=20961
lovel=1
lpc=+4fpQQDYjsLqb4BC3osQwvNP90HOj+fB5cOeQSU1OsHgNxFBleFXwWXeg0EDKl7BfMPdQBImrECF8VHBBWsoQf0mysBm8AxB7WcuwZf8n0Czp9W//hjZQNKaGsH0N4xA
lpc_rms=-17.75
pitch_keycenter=g#3
sample=SoloCello_espressivo_FF_G#3.opus
</region>

<region>
end=299364
hikey=g#2
hivel=127
lokey=g2
loop_end=272799
loop_mode=loop_continuous
loop_start=100791
loop_xfade=20842
lovel=1
lpc=Za2aQhBmV8OacVpDX7bgwmnWjkIZInTCORC+QT6TKsEaBJxBh6rqwadM4kHQmznAFS1ZwQy0pEHA3QHCL4CiQa988D/e8aNAkcY7wf4fEMA2FuNAGqPmPgtCrsAs60lA
lpc_rms=-15.72
pitch_keycenter=g#2
sample=SoloCello_espressivo_FF_G#2.opus
</region>

<region>
end=302265
hikey=B6
hivel=127
lokey=f5
loop_end=275443
loop_mode=loop_continuous
loop_start=101768
loop_xfade=21044
lovel=1
lpc=+QDnQIQYPsFv3RhBIy7OwKMurkBB0hnAF2jsPuqZlb3wkX4/5MObv+8NE0AlTfG/habZPuVn1z8cCL2/oXXBP+Woqb8s2as/zpz4vjRXsD80twDA4+oZQGpO5r9t+c4/
lpc_rms=-25.40
pitch_keycenter=F#5
sample=SoloCello_espressivo_FF_F#5.opus
</region>

<region>
end=303611
hikey=f#4
hivel=127
lokey=f4
loop_end=276669
loop_mode=loop_continuous
loop_start=102221
loop_xfade=21138
lovel=1
lpc=W9TnQFUeb8F+L0pBfTMAwcua4UCups7AzrBjQJlJn7/6dsE/h2wEwM8+AEBWswXAZoTiP+/VnL6gc+C+vK79POtcv743w88/rdO1vynaTz7HIDm+hpSDP7XZJL8bdjK8
lpc_rms=-22.11
pitch_keycenter=f#4
sample=SoloCello_espressivo_FF_F#4.opus
</region>

<region>
end=296899
hikey=f#3
hivel=127
lokey=f3
loop_end=270553
loop_mode=loop_continuous
loop_start=99961
loop_xfade=20671
lovel=1
lpc=vDy6Qb8tWsJff0JCXCzjwcPKu0HR+q7B0BaAQTHPI8GzI/hA+GYnwbvqR0GhOjHBzgJ/QIvk6kCibjPB8+LTQI7jgsC62+RA0637wNYwkUCbWj7Ayd6TQEYmoMBd8AJA
lpc_rms=-20.88
pitch_keycenter=f#3
sample=SoloCello_espressivo_FF_F#3.opus
</region>

<region>
end=299368
hikey=f#2
hivel=127
lokey=f2
loop_end=272803
loop_mode=loop_continuous
loop_start=100792
loop_xfade=20843
lovel=1
lpc=TvpwQtQsIcPtpR9D9HC2woc1hUIkcTzCSB9aQdQ348DLjm1BH329wb+lvEG7QL3AaAoswAtxtkB9NCDBKRYXQFVAzkCHwx7A/au7P1iSI8EbcjZBRAyZP0BVVcGwswBB
lpc_rms=-17.28
pitch_keycenter=f#2
sample=SoloCello_espressivo_FF_F#2.opus
</region>

<region>
end=294194
hikey=e5
hivel=127
lokey=d#5
loop_end=268088
loop_mode=loop_continuous
loop_start=99050
loop_xfade=20482
lovel=1
lpc=h+BDQQ/2wsHaQqRBvyZFwSk/H0FisujAhBWcQDupGcCMJfI+0XI5v3PTZkCNWcTAJciwQPBK0b8rxia/K4LMPxTtFMBEjEtAral1vxWMt75EEwY/wnaYPZkEj7+u+ck/
lpc_rms=-18.84
pitch_keycenter=e5
sample=SoloCello_espressivo_FF_E5.opus
</region>

<region>
end=308451
hikey=e4
hivel=127
lokey=d#4
loop_end=281080
loop_mode=loop_continuous
loop_start=103851
loop_xfade=21475
lovel=1
lpc=tVBKQWIf2sEOLbdBtjNnwbcTVEEv/jzB/9YJQXOc08DOuq9AcnGhwJq0q0BNk8nAQ6iEQABgtD+END/Ato5JPzbSIr/KtEVAtnAgwGgxKT9L2bm/uvDqPyc9gr59Mfq+
lpc_rms=-17.33
pitch_keycenter=e4
sample=SoloCello_espressivo_FF_E4.opus
</region>

<region>
end=300086
hikey=e3
hivel=127
lokey=d#3
loop_end=273457
loop_mode=loop_continuous
loop_start=101034
loop_xfade=20893
lovel=1
lpc=Ne4AQkM4pML5NJ9C7aM7wrjtBkKz4dvBzEeBQaxSEcEtkyhB/kNwwU3hhkEiz4XBY2kaQcFPD0Ha/KfB5Nh0QZ6nwsABqrBAX3LPwK2rMUACZS3A6FjsQJjKA8HX9VFA
lpc_rms=-17.28
pitch_keycenter=e3
sample=SoloCello_espressivo_FF_E3.opus
</region>

<region>
end=307463
hikey=e2
hivel=127
lokey=d#2
loop_end=280180
loop_mode=loop_continuous
loop_start=103518
loop_xfade=21406
lovel=1
lpc=L1RdQkwaFMOyFQ9DJUSQwqeXPUIoKQ3C9v4bQSknpcBAz0BBopigwWodo0E2ka3A6ObDwCmihkEnGKbBy+O0QGh1W0Avw5lAPRWowFXRSsDKo0JAaeHBQIsbRcGQ6cZA
lpc_rms=-17.52
pitch_keycenter=e2
sample=SoloCello_espressivo_FF_E2.opus
</region>

<region>
end=300216
hikey=d5
hivel=127
lokey=c#5
loop_end=273576
loop_mode=loop_continuous
loop_start=101078
loop_xfade=20902
lovel=1
lpc=FxoJQfFIhcHRT2pBBxEdwWZp5kBBSojAcPMWQAItrr9F41A+nTtRvzRHV0AmrIDA9SgWQBDFv75Ncym/EA1/Pxri4r8BTUZArLQOwKBDxT9EspO/MTSyP4SVhr8PlSM/
lpc_rms=-21.27
pitch_keycenter=d5
sample=SoloCello_espressivo_FF_D5.opus
</region>

<region>
end=304687
hikey=d4
hivel=127
lokey=c#4
loop_end=277650
loop_mode=loop_continuous
loop_start=102583
loop_xfade=21213
lovel=1
lpc=VLQEQbAskMG6R4BBY2YqwdSGF0FAzA7Bk57eQPmpjcCqFQhAe3fvv0NtY0D95IbAfZMdQLIhXz7n+aa/g6W1PnH9Fb8UwytA+ak1wMml/T/v6ui/0UeTP+R7EL8dSKs+
lpc_rms=-21.36
pitch_keycenter=d4
sample=SoloCello_espressivo_FF_D4.opus
</region>

<region>
end=299072
hikey=d3
hivel=127
lokey=c#3
loop_end=272533
loop_mode=loop_continuous
loop_start=100693
loop_xfade=20822
lovel=1
lpc=JQPGQXzDfsIhVnxC7BwRwnDTtUHEiXrBVbHzQK0Zu8Asne1AgvgBwcPz8kDn4rTARCOCPaiF8UCvKSfBgxIKQY68icBbqTJAAeoRwLbxnL6h0T4/Xx/JvgBErj5x0RG+
lpc_rms=-20.72
pitch_keycenter=d3
sample=SoloCello_espressivo_FF_D3.opus
</region>

<region>
end=309860
hikey=d2
hivel=127
lokey=c#2
loop_end=282364
loop_mode=loop_continuous
loop_start=104325
loop_xfade=21573
lovel=1
lpc=3q4UQgxfwsLNc71CqElUwrrDGUJ8h+zBq0I9QVgsssDaPuRA+jc2wT+hEUHl2QFAYN2swOLOB0EIhFPB7m7TQGj8Cz7q5mdAHOhJwKm3E8DSwN4/DyuBQGIrBcGBZItA
lpc_rms=-21.48
pitch_keycenter=d2
sample=SoloCello_espressivo_FF_D2.opus
</region>

<region>
end=295841
hikey=c5
hivel=127
lokey=b4
loop_end=269589
loop_mode=loop_continuous
loop_start=99605
loop_xfade=20597
lovel=1
lpc=VuK3QD5nNsGWzhxB+mTIwFygpECEDI3AIgtDQDql7b9McgdA2y8twPC9MUAOjxDA0rNOP5HoAz8ciW2/cQajPxiJn7/AUsw/Qdmuv0JWOT9f1E+/9Y2uP2x1sr8YWmQ/
lpc_rms=-25.73
pitch_keycenter=c5
sample=SoloCello_espressivo_FF_C5.opus
</region>

<region>
end=306980
hikey=c4
hivel=127
lokey=b3
loop_end=279739
loop_mode=loop_continuous
loop_start=103355
loop_xfade=21372
lovel=1
lpc=Xt8NQYgnksGFpnVB8dEjwTmQHEGGigfBlUeKQGAYDsDXsRxA7mwZwGgCDEDi0l/Al3AwQBVLiT8dXinA2RThP2eWCcDznkhAoQwowC9xB0C0zhHADff+P7wRZr9oUnU+
lpc_rms=-22.12
pitch_keycenter=c4
sample=SoloCello_espressivo_FF_C4.opus
</region>

<region>
end=295035
hikey=c3
hivel=127
lokey=b2
loop_end=268854
loop_mode=loop_continuous
loop_start=99334
loop_xfade=20541
lovel=1
lpc=QfsxQmA55cLvBddCmP5SwmQK+EEJXbfBRuMmQYs3JsFgRoJBrja6wesdz0EYbX/BchmEQCpN50ABr4LB68lfQWLC0MClkONA6rTjwBgNDEAavTXAfpMcQc1ITsHQw7hA
lpc_rms=-16.63
pitch_keycenter=c3
sample=SoloCello_espressivo_FF_C3.opus
</region>

<region>
end=297316
hivel=127
key=c2
loop_end=270933
loop_mode=loop_continuous
loop_start=100102
loop_xfade=20700
lovel=1
lpc=HmBwQhbqIsMkHh5DQDWKwsi94kGa0qvBkbsFQcPah8DU0sZA7vJ4wT1QqUHNktvAIjwHwQGpk0HY4qzBlUAHQV2WWkDuwCZA8XCYwK521MCQqyZBxAzOPydoRcEnfuBA
lpc_rms=-16.21
sample=SoloCello_espressivo_FF_C2.opus
</region>

<region>
end=332723
hikey=a#4
hivel=127
lokey=a4
loop_end=281454
loop_mode=loop_continuous
loop_start=112023
loop_xfade=23165
lovel=1
lpc=CzZrQP3q2MBx/69ACYhIwLKKM0A5HjzAQ2oFQMHVYb+pf/k+P5FBv0AujD+lQGC/DztAPtBwCT+P4Ti/PrTnPmfSLr9oBpA/w5RRv2urfz7FvGC+Vc1FPw4pDb+2lws+
lpc_rms=-29.42
pitch_keycenter=a#4
sample=SoloCello_espressivo_FF_A#4.opus
</region>

<region>
end=299073
hikey=a#3
hivel=127
lokey=a3
loop_end=272534
loop_mode=loop_continuous
loop_start=100693
loop_xfade=20822
lovel=1
lpc=h2OvQaDbTcKt6zZCJhDiwWSnzUHfuLfBXVSFQXiuSsEVPCtBYS9JweavUkHLSQ/BiEodQKzokkAf9v7AUcGxQKOug8BCevZAztXgwGV5J0AZEB3AkkJxQKg3OcClfn0/
lpc_rms=-19.87
pitch_keycenter=a#3
sample=SoloCello_espressivo_FF_A#3.opus
</region>

<region>
end=304661
hikey=a#2
hivel=127
lokey=a2
loop_end=277626
loop_mode=loop_continuous
loop_start=102575
loop_xfade=21211
lovel=1
lpc=AHUrQmlA38JGg9RCjyRSwgvs4kGY5pDBoVZ5QA1HDcCBVEZBLzewwTD4qUEpSgvBh1AdwJBYMkE7wrTBdwC1QQ7zK8FskR5B6xstwarY1b2OalFACP+zQKimIcEvSpZA
lpc_rms=-17.82
pitch_keycenter=a#2
sample=SoloCello_espressivo_FF_A#2.opus
</region>
</group>